<?xml version="1.0" encoding="utf-8"?>
<!-- Generator: Adobe Illustrator 22.0.1, SVG Export Plug-In . SVG Version: 6.00 Build 0)  -->
<svg version="1.1" id="Capa_1" xmlns="http://www.w3.org/2000/svg" xmlns:xlink="http://www.w3.org/1999/xlink" x="0px" y="0px"
	 viewBox="0 0 113 14" style="enable-background:new 0 0 113 14;" xml:space="preserve">
<style type="text/css">
	.st0{fill:#FFFFFF;}
</style>
<g>
	<path class="st0" d="M9.1,6.2C8.8,6.1,8.5,5.9,8.1,5.6c-0.4-0.2-0.8-0.4-1-0.5C6.8,5,6.6,4.8,6.3,4.7C6.1,4.5,5.9,4.3,5.8,4.2
		S5.6,3.8,5.6,3.6c0-0.6,0.4-0.9,1.1-0.9c0.4,0,0.9,0.1,1.5,0.3s1,0.4,1.4,0.7s0.8,0.3,1,0.3c0.1,0,0.3,0,0.4-0.1
		C11,4,11.1,3.9,11.2,3.8c0.1-0.1,0.1-0.3,0.1-0.5c0-0.7-0.5-1.3-1.5-1.9S7.6,0.5,6.2,0.5c-1.7,0-2.9,0.3-3.8,1C1.4,2.1,1,3,1,4
		C1,4.3,1,4.6,1.2,5c0.1,0.4,0.4,0.7,0.7,1.1S2.6,6.8,3,7c0.3,0.2,0.7,0.4,1,0.6c0.4,0.2,0.7,0.3,0.9,0.5l0.7,0.4
		C5.8,8.5,6,8.6,6.1,8.7C6.3,8.8,6.4,8.9,6.5,9c0.1,0.1,0.2,0.2,0.2,0.3s0.1,0.2,0.1,0.3c0,0.4-0.3,0.6-0.8,0.6
		c-0.6,0-1.4-0.2-2.3-0.5c-1-0.3-1.6-0.5-1.8-0.5C1.5,9.1,1.2,9.2,1,9.4c-0.2,0.2-0.3,0.4-0.3,0.7c0,0.2,0.1,0.5,0.3,0.8
		s0.4,0.5,0.8,0.8c0.4,0.3,0.8,0.5,1.2,0.7c0.5,0.2,1,0.4,1.6,0.5c0.6,0.1,1.3,0.2,1.9,0.2c3.3,0,5-1.2,5-3.7c0-0.6-0.2-1.2-0.6-1.7
		S10,6.8,9.1,6.2z"/>
	<path class="st0" d="M25.5,4.5c-1.3,0-2.5,0.3-3.4,1l-0.2,0.1c-0.4-0.8-1-1.2-1.9-1.2c-0.6,0-1.1,0.1-1.5,0.2S17.6,5,17.1,5.4
		c-0.3-0.6-0.9-1-1.9-1c-0.6,0-1,0.2-1.3,0.6c-0.3,0.4-0.5,0.9-0.5,1.5v4.4c0,0.8,0.1,1.3,0.4,1.6c0.3,0.3,0.7,0.5,1.4,0.5
		c0.8,0,1.3-0.1,1.6-0.4c0.3-0.3,0.4-0.8,0.4-1.5V8.6c0-0.4,0.1-0.7,0.2-1s0.3-0.4,0.5-0.4c0.5,0,0.8,0.3,0.8,1v3.3
		c0,0.3,0.1,0.6,0.2,0.8s0.3,0.4,0.5,0.5s0.6,0.2,1,0.2c0.3,0,0.5,0,0.7-0.1s0.3-0.1,0.5-0.3c0.1-0.1,0.3-0.3,0.3-0.5
		s0.2-0.5,0.2-0.8s0.1-0.7,0.1-1.1s0-0.9,0-1.6c0-0.4,0.1-0.8,0.2-1s0.3-0.4,0.5-0.4c0.5,0,0.8,0.3,0.8,1v3.3c0,0.3,0.1,0.6,0.2,0.8
		s0.3,0.4,0.6,0.5c0.3,0.1,0.7,0.2,1.1,0.2c0.3,0,0.5,0,0.7-0.1s0.4-0.1,0.5-0.3c0.2-0.1,0.3-0.3,0.4-0.5c0.1-0.2,0.2-0.5,0.2-0.8
		s0.1-0.7,0.1-1.1s0-0.9,0-1.6c0-1.5-0.2-2.6-0.6-3.3S26.4,4.5,25.5,4.5z"/>
	<path class="st0" d="M31.5,0.5c-0.6,0-1.1,0.1-1.4,0.4c-0.3,0.3-0.5,0.6-0.5,1c0,0.5,0.2,0.8,0.6,1s0.8,0.3,1.4,0.3
		c0.6,0,1.1-0.1,1.5-0.3c0.3-0.2,0.5-0.6,0.5-1.1C33.5,1,32.8,0.5,31.5,0.5z"/>
	<path class="st0" d="M31.4,4.4c-0.6,0-1,0.2-1.3,0.6c-0.3,0.4-0.5,0.9-0.5,1.5v4.4c0,0.8,0.1,1.3,0.4,1.6c0.3,0.3,0.7,0.5,1.4,0.5
		c0.8,0,1.3-0.1,1.6-0.4c0.3-0.3,0.4-0.8,0.4-1.5V6.4c0-0.8-0.2-1.3-0.5-1.6C32.6,4.6,32.1,4.4,31.4,4.4z"/>
	<path class="st0" d="M37.1,0.7c-0.2,0-0.4,0-0.6,0.1S36.1,0.9,35.9,1c-0.2,0.1-0.3,0.2-0.4,0.4c-0.1,0.2-0.2,0.4-0.3,0.6
		c-0.1,0.2-0.1,0.5-0.1,0.8l0,7.6c0,1,0.2,1.6,0.5,2c0.3,0.4,0.8,0.6,1.5,0.6s1.2-0.2,1.5-0.6c0.3-0.4,0.5-1.1,0.5-2.1V2.7
		c0-0.8-0.2-1.3-0.5-1.6C38.2,0.8,37.7,0.7,37.1,0.7z"/>
	<path class="st0" d="M49.3,9.7c-0.1,0-0.3,0.1-0.6,0.2c-0.3,0.1-0.5,0.2-0.7,0.3c-0.5,0.1-1.1,0.2-1.6,0.2c-0.5,0-0.9-0.1-1.2-0.3
		c-0.3-0.2-0.5-0.5-0.6-0.9l2.5,0c0.3,0,0.6,0,0.8-0.1c0.3-0.1,0.5-0.1,0.7-0.2c0.2-0.1,0.4-0.2,0.5-0.3c0.2-0.1,0.3-0.3,0.4-0.4
		c0.1-0.2,0.2-0.3,0.2-0.5s0.1-0.3,0.1-0.5c0-0.9-0.3-1.5-1-2c-0.7-0.5-1.7-0.7-3.1-0.7c-1.5,0-2.7,0.4-3.6,1.2
		c-0.9,0.8-1.4,1.9-1.4,3.4c0,1.3,0.5,2.3,1.4,3.1c1,0.8,2.2,1.1,3.6,1.1c0.6,0,1.3-0.1,1.8-0.3c0.6-0.2,1-0.5,1.4-0.8
		c0.3-0.3,0.6-0.6,0.8-0.9c0.2-0.3,0.3-0.6,0.3-0.8c0-0.2-0.1-0.3-0.2-0.4C49.6,9.7,49.5,9.7,49.3,9.7z M44.7,6.9
		c0.1-0.3,0.3-0.6,0.4-0.8s0.3-0.3,0.5-0.3c0.5,0,0.7,0.4,0.7,1.1c0,0.3,0,0.5-0.1,0.6c-0.1,0.2-0.2,0.3-0.4,0.3c-0.1,0-0.5,0-1.3,0
		C44.5,7.6,44.6,7.2,44.7,6.9z"/>
	<path class="st0" d="M59.7,6.2c-0.3-0.2-0.6-0.4-1.1-0.6c-0.4-0.2-0.8-0.4-1-0.5c-0.2-0.1-0.5-0.3-0.7-0.5
		c-0.3-0.2-0.4-0.3-0.5-0.5s-0.2-0.3-0.2-0.5c0-0.6,0.4-0.9,1.1-0.9c0.4,0,0.9,0.1,1.5,0.3s1,0.4,1.4,0.7s0.8,0.3,1,0.3
		c0.1,0,0.3,0,0.4-0.1c0.1-0.1,0.2-0.1,0.3-0.3c0.1-0.1,0.1-0.3,0.1-0.5c0-0.7-0.5-1.3-1.5-1.9s-2.2-0.9-3.7-0.9
		c-1.7,0-2.9,0.3-3.8,1C52,2.1,51.6,3,51.6,4c0,0.3,0.1,0.7,0.2,1c0.1,0.4,0.4,0.7,0.7,1.1s0.7,0.7,1.1,0.9c0.3,0.2,0.7,0.4,1,0.6
		c0.4,0.2,0.7,0.3,0.9,0.5l0.7,0.4c0.2,0.1,0.4,0.2,0.5,0.3C56.9,8.8,57,8.9,57.1,9c0.1,0.1,0.2,0.2,0.2,0.3c0,0.1,0.1,0.2,0.1,0.3
		c0,0.4-0.3,0.6-0.8,0.6c-0.6,0-1.4-0.2-2.3-0.5s-1.6-0.5-1.8-0.5c-0.3,0-0.6,0.1-0.8,0.3c-0.2,0.2-0.3,0.4-0.3,0.7
		c0,0.2,0.1,0.5,0.3,0.8c0.2,0.3,0.4,0.5,0.8,0.8c0.4,0.3,0.8,0.5,1.2,0.7c0.5,0.2,1,0.4,1.6,0.5c0.6,0.1,1.3,0.2,1.9,0.2
		c3.3,0,5-1.2,5-3.7c0-0.6-0.2-1.2-0.6-1.7C61.3,7.3,60.6,6.8,59.7,6.2z"/>
	<path class="st0" d="M72.8,9.8c-0.1-0.1-0.2-0.1-0.4-0.1c-0.1,0-0.3,0.1-0.5,0.2s-0.5,0.2-0.7,0.3c-0.4,0.1-1,0.2-1.6,0.2
		c-0.6,0-1.1-0.2-1.5-0.6c-0.4-0.4-0.5-0.9-0.5-1.5c0-0.4,0-0.8,0.1-1.2s0.2-0.7,0.4-0.9s0.4-0.4,0.6-0.4c0.3,0,0.5,0.1,0.5,0.4
		c0,0.1,0,0.3-0.1,0.7C69,7.3,69,7.6,69,7.8c0,0.3,0,0.5,0.1,0.7c0.1,0.2,0.2,0.3,0.3,0.4C69.6,9,69.7,9,69.8,9c0.1,0,0.3,0,0.5,0
		c0.5,0,0.9-0.1,1.3-0.2s0.6-0.3,0.8-0.6c0.2-0.2,0.3-0.5,0.4-0.7C73,7.3,73,7.1,73,6.8c0-0.5-0.1-1-0.4-1.3s-0.7-0.7-1.3-0.9
		c-0.6-0.2-1.4-0.3-2.3-0.3c-1,0-1.9,0.2-2.6,0.5c-0.8,0.3-1.4,0.8-1.8,1.5C64,7,63.8,7.8,63.8,8.6c0,1.4,0.5,2.5,1.4,3.3
		c1,0.8,2.2,1.2,3.7,1.2c0.5,0,1-0.1,1.5-0.2c0.5-0.1,0.9-0.3,1.2-0.5c0.3-0.2,0.6-0.5,0.8-0.7s0.4-0.5,0.5-0.8s0.2-0.4,0.2-0.6
		c0-0.1,0-0.2-0.1-0.3C73,9.9,73,9.8,72.8,9.8z"/>
	<path class="st0" d="M83.3,4.8c-0.3-0.3-0.8-0.4-1.4-0.4c-1.3,0-2.4,0.3-3.2,0.8V2.6c0-0.8-0.2-1.3-0.5-1.6s-0.8-0.4-1.4-0.4
		c-0.6,0-1.1,0.2-1.4,0.5c-0.4,0.3-0.5,0.9-0.5,1.6l0,7.7c0,1,0.2,1.6,0.5,2c0.3,0.4,0.8,0.6,1.5,0.6c0.6,0,1.1-0.2,1.4-0.6
		c0.3-0.4,0.5-1.1,0.5-2.1v-2c0-0.1,0-0.3,0-0.4s0-0.2,0.1-0.3c0-0.1,0.1-0.2,0.1-0.2s0.1-0.1,0.2-0.2s0.1-0.1,0.2-0.1
		c0.1,0,0.2,0,0.3,0c0.5,0,0.8,0.3,0.8,1l0,3.3c0,0.5,0.1,0.9,0.4,1.1c0.3,0.2,0.8,0.4,1.4,0.4c0.3,0,0.5,0,0.6-0.1
		c0.2,0,0.3-0.1,0.5-0.2s0.3-0.2,0.4-0.3c0.1-0.1,0.2-0.3,0.3-0.5c0.1-0.2,0.1-0.5,0.2-0.8c0-0.3,0.1-0.7,0.1-1.1s0-0.8,0-1.4
		c0-1-0.1-1.9-0.3-2.5C83.9,5.6,83.6,5.1,83.3,4.8z"/>
	<path class="st0" d="M90.8,4.3c-1.5,0-2.7,0.4-3.6,1.2c-0.9,0.8-1.4,1.9-1.4,3.3c0,0.9,0.2,1.7,0.7,2.4s1,1.2,1.8,1.5
		s1.6,0.5,2.5,0.5c1.4,0,2.6-0.4,3.6-1.2c0.9-0.8,1.4-1.8,1.4-3.2c0-1.4-0.5-2.5-1.4-3.3C93.5,4.7,92.3,4.3,90.8,4.3z M91.5,10.4
		c-0.2,0.5-0.4,0.7-0.7,0.7s-0.6-0.2-0.7-0.7c-0.2-0.5-0.3-1-0.3-1.6c0-0.4,0-0.8,0.1-1.1C90,7.3,90.1,7,90.3,6.7
		c0.2-0.2,0.3-0.4,0.5-0.4c0.3,0,0.5,0.2,0.7,0.7s0.2,1,0.2,1.6S91.7,9.9,91.5,10.4z"/>
	<path class="st0" d="M102.2,4.3c-1.5,0-2.7,0.4-3.6,1.2c-0.9,0.8-1.4,1.9-1.4,3.3c0,0.9,0.2,1.7,0.7,2.4s1,1.2,1.8,1.5
		s1.6,0.5,2.5,0.5c1.4,0,2.6-0.4,3.6-1.2c0.9-0.8,1.4-1.8,1.4-3.2c0-1.4-0.5-2.5-1.4-3.3S103.6,4.3,102.2,4.3z M102.9,10.4
		c-0.2,0.5-0.4,0.7-0.7,0.7c-0.3,0-0.6-0.2-0.7-0.7c-0.2-0.5-0.3-1-0.3-1.6c0-0.4,0-0.8,0.1-1.1c0.1-0.3,0.2-0.6,0.3-0.9
		c0.2-0.2,0.3-0.4,0.5-0.4c0.3,0,0.5,0.2,0.7,0.7s0.2,1,0.2,1.6S103,9.9,102.9,10.4z"/>
	<path class="st0" d="M112.1,1.1c-0.3-0.3-0.8-0.4-1.5-0.4c-0.2,0-0.4,0-0.6,0.1s-0.4,0.1-0.5,0.2c-0.2,0.1-0.3,0.2-0.4,0.4
		c-0.1,0.2-0.2,0.4-0.3,0.6s-0.1,0.5-0.1,0.8l0,7.6c0,1,0.2,1.6,0.5,2c0.3,0.4,0.8,0.6,1.5,0.6s1.2-0.2,1.5-0.6
		c0.3-0.4,0.5-1.1,0.5-2.1V2.7C112.6,1.9,112.4,1.3,112.1,1.1z"/>
</g>
</svg>
