<svg id="Capa_1" data-name="Capa 1" xmlns="http://www.w3.org/2000/svg" viewBox="0 0 35.32 27.54"><defs><style>.cls-1{fill:#fff;}</style></defs><title>logo_off</title><path class="cls-1" d="M8.93,11.87c2.17,0,3.93-2.66,3.93-5.92S11.1,0,8.93,0,5,2.68,5,6,6.76,11.87,8.93,11.87Z" transform="translate(-0.68 -0.02)"/><path class="cls-1" d="M27.64,11.87c2.17,0,3.94-2.66,3.94-5.92S29.81,0,27.64,0,23.71,2.68,23.71,6,25.47,11.87,27.64,11.87Z" transform="translate(-0.68 -0.02)"/><path class="cls-1" d="M35.72,16.61a.69.69,0,0,0-.86-.05A37.17,37.17,0,0,1,18.7,22.22a37,37,0,0,1-17-1.59.7.7,0,0,0-.82.27.83.83,0,0,0,0,.92c2.6,4.26,10.22,6.52,18.52,5.5S34.47,22.26,36,17.5A.85.85,0,0,0,35.72,16.61Z" transform="translate(-0.68 -0.02)"/></svg>